<?xml version="1.0" standalone="no"?>
<!DOCTYPE svg PUBLIC "-//W3C//DTD SVG 20010904//EN"
 "http://www.w3.org/TR/2001/REC-SVG-20010904/DTD/svg10.dtd">
<svg version="1.0" xmlns="http://www.w3.org/2000/svg"
 width="1388.000000pt" height="1555.000000pt" viewBox="0 0 1388.000000 1555.000000"
 preserveAspectRatio="xMidYMid meet">

<g transform="translate(0.000000,1555.000000) scale(0.100000,-0.100000)"
fill="#000000" stroke="none">
<path d="M12465 15413 c-422 -546 -1065 -978 -2005 -1348 -383 -151 -679 -251
-1625 -549 -704 -221 -1170 -377 -1490 -496 -1344 -500 -2327 -1069 -3175
-1836 -188 -169 -530 -520 -684 -699 -438 -512 -799 -1044 -1060 -1565 -130
-260 -204 -436 -286 -676 -336 -988 -301 -1939 102 -2829 423 -930 1322 -1789
2268 -2165 220 -88 483 -146 625 -138 36 1 65 0 65 -3 0 -8 -576 -395 -805
-541 -1076 -686 -2006 -1136 -2740 -1328 -324 -85 -519 -113 -925 -135 -168
-9 -297 -20 -333 -30 -127 -33 -257 -125 -314 -223 -163 -278 -3 -658 333
-790 146 -58 345 -68 509 -27 550 139 1390 545 2450 1185 578 349 1260 798
1745 1148 1110 802 2339 1986 3346 3222 1211 1488 2187 3108 2931 4865 51 121
93 214 93 207 0 -7 -25 -103 -55 -213 -465 -1676 -1156 -3293 -2027 -4743
-526 -875 -1144 -1726 -1784 -2457 -383 -437 -827 -888 -1203 -1222 l-54 -48
57 -84 c394 -580 1040 -986 1910 -1200 373 -92 572 -119 876 -119 303 0 523
26 804 98 1174 302 2203 1214 2880 2556 186 369 300 642 432 1035 272 813 435
1676 509 2685 49 685 46 1543 -10 2325 -122 1700 -486 3600 -1075 5615 -88
302 -188 632 -193 636 -1 1 -42 -49 -92 -113z"/>
</g>
</svg>
